<svg version="1.2" xmlns="http://www.w3.org/2000/svg" viewBox="0 0 1080 1080" width="1080" height="1080"><defs><clipPath clipPathUnits="userSpaceOnUse" id="cp1"><path d="m540 1039c-278.71 0-504-225.29-504-504 0-278.71 225.29-504 504-504 278.71 0 504 225.29 504 504 0 278.71-225.29 504-504 504z"/></clipPath></defs><style>.a{fill:#f4e6e1}.b{fill:#5b4852}.c{fill:#d88d48}.d{fill:#fff}.e{fill:#f1b69a}.f{fill:#150a08}.g{fill:none;stroke:#e07e61;stroke-linecap:round;stroke-width:2}.h{opacity:.5;mix-blend-mode:multiply;fill:#f1b69a}.i{fill:none;stroke:#150a08;stroke-linecap:round;stroke-width:2}</style><path class="a" d="m540 1080c-298.6 0-540-241.4-540-540 0-298.6 241.4-540 540-540 298.6 0 540 241.4 540 540 0 298.6-241.4 540-540 540z"/><g clip-path="url(#cp1)"><path class="b" d="m730.4 443c69.4-124.9 14.5-196.5-29.9-173.1 0 0-6.8-77.4-108.4-124.1-117.6-54-269.6-11.9-299.2 69.4-27.3 75.1 21.5 111.3 21.5 111.3 0 0-30.2 54 21.5 134.7 51.7 80.8 363.5 37.7 394.5-18.2z"/><path class="c" d="m979 1049.5h-878c0 0 26.6-147.3 86.9-232.1 60.4-84.8 284.4-115.7 284.4-115.7l67.7 10.4 67.7-10.4c0 0 224.1 30.9 284.4 115.7 60.4 84.8 86.9 232.1 86.9 232.1z"/><path class="d" d="m472.3 701.7l-86.7 16.3c0 0 19.9 98 99.2 147.1l53.9-66v-70.8z"/><path class="d" d="m601.7 701.7l86.8 16.3c0 0-20 98-99.3 147.1l-53.9-66v-70.8z"/><path class="e" d="m538.5 776.5c-32.8 0-59.4-26.7-59.4-59.5v-113.6h118.9v113.6c0 32.8-26.6 59.5-59.5 59.5z"/><path class="f" d="m598 590.2v69.8c0 0-19.9 34.7-59.5 34.7-31.7 0-59.4-30.1-59.4-30.1v-74.4z"/><path class="e" d="m372.1 468.1c-32.1-48.9-69.4-17.5-69.4 16.9 0 49.8 54 92.7 84.9 57 30.8-35.8-15.5-73.9-15.5-73.9z"/><path class="g" d="m365.1 490.7c-20-37.4-47.7-2.5-37.1 11.3"/><path class="e" d="m693.4 468.1c32.2-48.9 69.5-17.5 69.5 16.9 0 49.8-54 92.7-84.9 57-30.9-35.8 15.4-73.9 15.4-73.9z"/><path class="g" d="m700.5 490.7c20-37.4 47.6-2.5 37.1 11.3"/><path class="e" d="m532.6 660c-127.1-0.1-202.2-138.9-172.5-281.5 24.5-117.5 320.9-117.5 345.4 0 29.7 142.6-45.7 281.5-172.9 281.5z"/><path class="h" d="m515.7 517.2c13.1 6.3 42.6-7.6 43.2 0 0.6 7.6-15.6 14.4-21.6 14.4-5.9 0-21.6-14.4-21.6-14.4z"/><path class="g" d="m516.2 478.9c-18.6 40.1 9.1 47.9 16.6 48.9"/><path class="i" d="m488.4 549.5c49.1 9.5 88 1.6 103.7-10.9"/><path class="f" d="m482.5 369.6c-7.9-17.7-54.5-9.6-61 3.1-6.6 12.6 15.1 16.1 31.3 15.3 16.2-0.8 34.8-7.1 29.7-18.4z"/><path class="f" d="m583 369.6c8-17.7 54.5-9.6 61.1 3.1 6.6 12.6-15.2 16.1-31.4 15.3-16.1-0.8-34.7-7.1-29.7-18.4z"/><path class="h" d="m521.3 573.7c17.8 0.1 43.3-9.2 47.3 0 3.9 9.2-17.8 27.7-31.3 26.3-13.4-1.3-36.3-26.3-16-26.3z"/><path class="f" d="m461.7 450.8c-7.1 0-12.8-5.7-12.8-12.8 0-7.1 5.7-12.8 12.8-12.8 7 0 12.8 5.7 12.8 12.8 0 7.1-5.8 12.8-12.8 12.8z"/><path class="f" d="m603.9 450.8c-7.1 0-12.8-5.7-12.8-12.8 0-7.1 5.7-12.8 12.8-12.8 7 0 12.8 5.7 12.8 12.8 0 7.1-5.8 12.8-12.8 12.8z"/><path class="b" d="m645.3 290.3c-32.9 73.9-105.1 31.9-105.1 31.9 0 0-47.3 44.3-120 37.2-72.7-7.1-110.5-94.2-22-131.1 88.5-36.9 293.4-41.8 247.1 62z"/></g></svg>