<svg version="1.2" xmlns="http://www.w3.org/2000/svg" viewBox="0 0 1080 1080" width="1080" height="1080"><defs><clipPath clipPathUnits="userSpaceOnUse" id="cp1"><path d="m540 1080c-298.62 0-540-241.38-540-540 0-298.62 241.38-540 540-540 298.62 0 540 241.38 540 540 0 298.62-241.38 540-540 540z"/></clipPath></defs><style>.a{fill:#f4ddd4}.b{fill:#d76a40}.c{fill:#5b4850}.d{fill:#f1b69a}.e{fill:#150a08}.f{fill:none;stroke:#e07e61;stroke-linecap:round;stroke-width:2}.g{opacity:.5;mix-blend-mode:multiply;fill:#f1b69a}.h{fill:#fff}</style><path class="a" d="m540 1080c-298.6 0-540-241.4-540-540 0-298.6 241.4-540 540-540 298.6 0 540 241.4 540 540 0 298.6-241.4 540-540 540z"/><g clip-path="url(#cp1)"><path class="b" d="m358.5 232.7c3.4-8.1-44 6.9-48 8.8-23.5 11.1-41.5 27.6-51.6 51.9-9.8 23.6-11.5 49.7-10.9 75.1 1.8 78.5 61 177.3 4.8 247.3-29 36.1-79.8 45-118.1 71-73.1 49.4-87.8 159.5-45.5 236.8 42.3 77.4 128.8 123.1 216 136.1 87.3 12.9 176.1-2.6 262.1-22.1 59.8-13.5 120.9-29.8 169.6-67 114.7-87.8 61.3-197.7 8.6-300.5-33.7-65.8 26.8-96.9 53.2-178.6 47.6-147.1-20.5-289.9-150.6-346.3-213.1-92.4-289.2 86.5-289.6 87.5z"/><path class="c" d="m960.6 1080h-841.2c0 0 39.3-151.4 95.1-241.1 55.8-89.8 260.6-120.3 260.6-120.3l64.9 10.9 64.9-10.9c0 0 204.9 30.5 260.7 120.3 55.8 89.7 95 241.1 95 241.1z"/><path class="d" d="m352.6 748.5c98.5 140.8 284.8 122.9 374.8 0 0 0-180.5-84.1-374.8 0z"/><path class="d" d="m538.4 798.7c-35.2 0-63.7-28.5-63.7-63.7v-121.7h127.5v121.7c0 35.2-28.6 63.7-63.8 63.7z"/><path class="e" d="m602.2 599.2v74.7c0 0-21.4 37.2-63.8 37.2-34 0-63.7-32.2-63.7-32.2v-79.7z"/><path class="d" d="m360.1 468.3c-34.4-52.3-74.4-18.7-74.4 18.2 0 53.3 57.9 99.3 91 61 33.1-38.3-16.6-79.2-16.6-79.2z"/><path class="f" d="m352.6 492.5c-21.4-40.1-51.1-2.7-39.8 12.2"/><path class="d" d="m704.4 468.3c34.4-52.3 74.4-18.7 74.4 18.2 0 53.3-57.9 99.3-91 61-33-38.3 16.6-79.2 16.6-79.2z"/><path class="f" d="m711.9 492.5c21.5-40.1 51.1-2.7 39.8 12.2"/><path class="d" d="m532.1 673.9c-136.2 0-216.7-148.8-184.9-301.6 26.3-125.9 343.8-125.9 370.1 0 31.8 152.8-49 301.7-185.2 301.6z"/><path class="g" d="m514 521c14 6.7 45.6-8.2 46.3 0 0.6 8.1-16.8 15.3-23.2 15.3-6.3 0-23.1-15.3-23.1-15.3z"/><path class="f" d="m514.5 479.9c-19.9 43 9.8 51.3 17.8 52.3"/><path class="b" d="m478.4 362.8c-8.5-19-58.4-10.3-65.4 3.3-7.1 13.5 16.3 17.3 33.6 16.4 17.3-0.8 37.2-7.6 31.8-19.7z"/><path class="e" d="m586.1 362.8c8.5-19 58.4-10.3 65.4 3.3 7.1 13.5-16.2 17.3-33.6 16.4-17.3-0.8-37.2-7.6-31.8-19.7z"/><path class="e" d="m456.1 449.8c-7.6 0-13.7-6.1-13.7-13.7 0-7.6 6.1-13.7 13.7-13.7 7.6 0 13.7 6.1 13.7 13.7 0 7.6-6.1 13.7-13.7 13.7z"/><path class="e" d="m608.4 449.8c-7.5 0-13.7-6.1-13.7-13.7 0-7.6 6.2-13.7 13.7-13.7 7.6 0 13.7 6.1 13.7 13.7 0 7.6-6.1 13.7-13.7 13.7z"/><path class="h" d="m481.3 554.9c52.1 5.6 87-0.1 111.7 0.7 0 0-31.2 44.1-67.9 35.3-36.7-8.7-43.8-36-43.8-36z"/><path class="g" d="m517.3 603.7c19.1 0.1 46.4-9.8 50.7 0 4.2 9.9-19.1 29.6-33.5 28.2-14.5-1.4-38.9-28.2-17.2-28.2z"/><path class="b" d="m442.4 238c-0.3 128.3 243.4 189.9 290.7 159.6 47.2-30.3 10.4-139.2-114.1-168.7-124.4-29.4-176.5-29.1-176.6 9.1z"/><path class="b" d="m442.9 237.1c31.1 62-54.3 198.8-102.7 189.7-48.5-9-48.5-62.6-10.7-126.2 37.8-63.5 98.7-92.9 113.4-63.5z"/></g></svg>